PathFileType	4	(X/Y/Z)	C:/Users/opensim2020/Desktop/walking_exp_matlab/subject01_walking15_straight_03.trc																																																																																																																															
DataRate	CameraRate	NumFrames	NumMarkers	Units	OrigDataRate	OrigDataStartFrame	OrigNumFrames																																																																																																																											
100	100	8	43	mm	100	1672	145																																																																																																																											
Frame#	Time	LFHD			RFHD			LBHD			RBHD			C7			T10			CLAV			STRN			RBAK			LSHO			LUPA			LELB			LFRM			LWRA			LWRB			LFIN			RSHO			RUPA			RELB			RFRM			RWRA			RWRB			RFIN			LASI			RASI			LPSI			RPSI			LTHI			LKNE			LTIB			LANK			LHEE			LTOE			RTHI			RKNE			RTIB			RANK			RHEE			RTOE			*39			*40			*41			*42		
		X1	Y1	Z1	X2	Y2	Z2	X3	Y3	Z3	X4	Y4	Z4	X5	Y5	Z5	X6	Y6	Z6	X7	Y7	Z7	X8	Y8	Z8	X9	Y9	Z9	X10	Y10	Z10	X11	Y11	Z11	X12	Y12	Z12	X13	Y13	Z13	X14	Y14	Z14	X15	Y15	Z15	X16	Y16	Z16	X17	Y17	Z17	X18	Y18	Z18	X19	Y19	Z19	X20	Y20	Z20	X21	Y21	Z21	X22	Y22	Z22	X23	Y23	Z23	X24	Y24	Z24	X25	Y25	Z25	X26	Y26	Z26	X27	Y27	Z27	X28	Y28	Z28	X29	Y29	Z29	X30	Y30	Z30	X31	Y31	Z31	X32	Y32	Z32	X33	Y33	Z33	X34	Y34	Z34	X35	Y35	Z35	X36	Y36	Z36	X37	Y37	Z37	X38	Y38	Z38	X39	Y39	Z39	X40	Y40	Z40	X41	Y41	Z41	X42	Y42	Z42	X43	Y43	Z43
																																																																																																																																		
73	0.72	92.27424	1648.25989	1434.99915	127.41766	1656.55176	1542.24158	-20.5452	1607.80811	1467.80457	14.19698	1615.15454	1582.10229	-52.08188	1413.36218	1498.98108	-92.57655	1119.31921	1505.34058	92.23232	1345.71802	1503.85815	132.46187	1189.26489	1500.17749	-113.28724	1220.88513	1568.64282	34.14947	1380.24402	1342.36646	1.74272	1201.8916	1251.86157	0.85978	1049.03101	1235.64514	109.01093	997.95166	1223.37195	242.01184	985.07922	1258.05432	215.0934	940.14044	1228.81262	299.89114	937.48865	1225.42908	19.29757	1381.14941	1651.55066	-95.79188	1202.50159	1735.84424	-118.90911	1082.68542	1744.36694	-142.81396	968.71356	1780.36926	-120.62505	826.26721	1770.13147	-159.32294	848.98114	1807.27136	-159.15726	761.15302	1811.58594	73.40726	909.11627	1396.76611	87.80642	921.75513	1609.54761	-108.1049	921.1225	1461.39343	-97.62218	925.38348	1607.39697	-9.57912	576.32098	1344.97925	-49.60036	446.07074	1354.37244	-201.368	330.96793	1352.81689	-355.59882	173.01897	1403.75146	-395.10995	189.51144	1460.85425	-306.14072	34.21165	1414.5448	132.47266	602.44348	1672.70618	191.60321	456.64972	1641.1095	164.41173	280.22064	1655.62427	157.44295	75.06685	1610.29858	106.56531	36.05637	1563.6449	297.34369	38.69641	1604.9635	113.59116	1690.29041	1521.91943	1973.18555	1023.46814	-3101.97095	2012.54272	1022.04816	-3140.67163	NaN	NaN	NaN
74	0.73	104.62579	1649.40308	1436.83252	140.08641	1657.46863	1543.99133	-8.03636	1608.56262	1469.97839	27.16524	1615.64246	1584.13501	-39.0145	1414.12415	1500.57922	-80.36895	1120.4845	1505.29639	105.58691	1346.78174	1504.96069	145.97766	1190.41626	1500.7854	-99.5914	1221.40771	1569.57739	47.24125	1381.39294	1343.78906	13.40321	1203.43542	1252.93372	11.14427	1050.68811	1236.59338	117.88751	997.1972	1223.84668	250.63016	980.39429	1258.10559	222.77304	936.22308	1228.92896	306.99869	931.3349	1225.27893	33.02155	1381.93359	1652.81421	-79.84826	1202.13342	1737.82605	-101.99574	1082.07593	1746.17798	-123.94062	967.64099	1782.05054	-100.11624	825.41455	1771.26599	-138.64397	847.54901	1808.69019	-137.00241	759.77466	1813.05115	87.15669	909.99457	1398.35706	101.1614	923.22913	1610.73462	-94.55711	921.87775	1461.9093	-84.09438	927.34503	1607.87073	11.10742	575.52509	1344.72412	-25.86965	444.85172	1352.87073	-179.68489	333.92609	1351.2854	-338.08334	179.73454	1401.04248	-376.03571	199.95447	1457.75525	-299.9476	37.99558	1414.52795	145.03331	602.76166	1673.78479	201.07175	454.77698	1641.5188	169.60191	279.57568	1656.32678	158.11479	74.89188	1609.77576	107.15247	35.4772	1563.50049	297.77225	38.07759	1604.72449	125.8861	1691.15063	1523.95886	1973.01685	1023.44287	-3101.99438	2012.54834	1022.08215	-3140.61011	NaN	NaN	NaN
75	0.74	117.06274	1650.58386	1438.52478	152.8721	1658.3916	1545.58447	4.64184	1609.30432	1471.92383	40.18085	1616.12207	1585.98254	-26.00087	1414.89758	1502.15039	-67.21989	1121.37878	1505.776	118.8498	1347.78589	1505.82776	159.276	1191.42798	1501.17273	-85.90026	1221.98767	1570.62244	60.0997	1382.60254	1345.04907	25.28192	1204.89258	1253.85132	21.16855	1052.5022	1237.87988	126.51463	996.09088	1224.58948	258.76013	975.08386	1258.04858	229.46359	931.93988	1228.92029	313.45953	923.91876	1225.0155	46.89244	1382.84351	1653.99182	-63.83224	1201.84167	1739.67883	-84.93432	1081.63599	1747.98169	-104.70079	966.66571	1783.73901	-78.22101	824.9621	1772.48706	-116.9695	846.3429	1810.22998	-113.94009	758.5481	1814.47668	100.65138	911.0174	1399.50146	114.20916	924.52948	1611.8407	-81.24502	922.65759	1462.65808	-70.68234	928.99963	1608.54431	31.62125	574.96246	1344.63232	-1.73446	443.69754	1351.41211	-156.60385	336.14722	1349.5282	-319.20932	186.67822	1399.36157	-356.43518	210.53873	1454.51355	-289.21973	43.36446	1415.76648	154.93901	602.39893	1674.35742	209.56288	453.31503	1642.19263	174.00578	279.34348	1656.4635	158.52216	74.90388	1609.67468	106.86743	35.89458	1563.78235	297.99286	37.74776	1604.53809	138.27357	1691.96973	1525.87854	1972.95166	1023.96484	-3102.05933	2012.44824	1022.11591	-3140.71362	NaN	NaN	NaN
76	0.75	129.67613	1651.81799	1440.09485	165.70999	1659.3656	1547.02014	17.27098	1610.28516	1473.69641	53.21266	1616.72595	1587.62793	-13.01284	1415.77271	1503.58179	-54.22796	1122.48132	1506.40955	132.00232	1348.80884	1506.45044	172.38129	1192.40479	1501.37671	-72.47692	1222.78564	1571.93054	72.62691	1383.82458	1346.07776	37.20682	1206.32104	1254.75745	30.98272	1053.95203	1239.36475	134.65596	994.58899	1225.14282	266.29633	969.15649	1257.8623	235.63588	927.24872	1228.91907	319.17416	916.13336	1224.62134	60.77401	1383.81702	1654.88123	-47.62614	1201.8075	1741.552	-67.73643	1081.20178	1749.77222	-85.1793	965.58185	1785.32458	-55.11934	825.13397	1774.29028	-94.94446	845.04041	1811.70276	-90.0129	757.35309	1815.771	114.40961	912.43207	1400.42761	126.97	925.71466	1612.77075	-68.16237	923.49261	1463.55103	-57.65566	930.34662	1609.19568	51.98959	574.31897	1344.15759	22.59834	442.6055	1350.02136	-132.64447	337.5199	1347.40564	-298.88617	194.19931	1398.83704	-336.17078	219.8945	1452.66101	-273.92496	49.43201	1415.92188	162.65836	601.703	1674.91382	216.97249	452.50305	1643.2417	177.99026	279.21417	1656.50427	158.70052	75.00177	1609.5918	106.82415	36.12459	1563.75171	298.21075	37.53593	1604.33984	150.81995	1692.86597	1527.45349	1973.09253	1023.51843	-3101.95044	2012.54272	1022.15686	-3140.6897	NaN	NaN	NaN
77	0.76	142.26862	1653.24512	1441.4209	178.71275	1660.43323	1548.3241	30.12034	1611.40869	1475.2373	66.34762	1617.54968	1589.10828	-0.01444	1416.91431	1504.9314	-41.20825	1123.62927	1507.1759	145.04057	1349.9707	1506.91211	185.28889	1193.42798	1501.46655	-59.20842	1223.84326	1573.47852	84.97949	1385.06116	1346.85803	48.99189	1207.73108	1255.41003	40.625	1055.35571	1240.90271	142.261	992.72028	1225.72168	273.51187	962.99341	1257.67505	241.03726	922.0694	1228.84485	324.19211	907.81433	1224.13818	74.72005	1384.85718	1655.6991	-31.32352	1201.84595	1743.42957	-50.47528	1080.88757	1751.53149	-65.28459	964.67529	1786.98999	-32.48238	824.77856	1775.04614	-72.12951	843.8877	1813.08643	-65.19955	756.38458	1817.03735	126.46743	913.34033	1400.62488	139.5517	926.72253	1613.62878	-55.31271	924.31525	1464.45349	-45.00536	931.50586	1609.88818	71.96652	574.36963	1343.56055	46.81895	442.03488	1348.80164	-108.43505	338.68332	1345.22119	-278.29907	201.48289	1399.16077	-315.97363	227.17543	1452.75879	-254.70625	55.92721	1416.12146	169.41708	600.83435	1675.52283	223.11198	451.91034	1644.33508	180.80574	278.49649	1655.95508	158.80591	75.15694	1609.47461	107.12956	36.21085	1563.67651	298.33411	37.21968	1604.42859	163.68314	1693.94348	1528.86328	1973.16809	1023.599	-3101.83667	2012.51208	1022.10254	-3140.75684	NaN	NaN	NaN
78	0.77	155.10417	1654.6925	1442.60632	191.85201	1661.55139	1549.40784	43.03696	1612.76367	1476.59387	79.61942	1618.55518	1590.39294	12.91195	1418.24646	1506.02588	-28.30198	1124.97314	1508.16577	157.96947	1351.20142	1507.09326	198.10158	1194.53113	1501.39966	-46.04915	1225.20374	1575.19019	97.16032	1386.33618	1347.42126	60.58441	1209.21191	1256.14954	50.13335	1056.50769	1242.25391	149.32098	990.31458	1226.32178	279.96616	956.15808	1257.18274	245.88663	916.52563	1228.82959	328.3439	899.04437	1223.48425	88.73936	1385.94141	1656.32971	-14.9856	1201.97778	1745.20654	-33.1621	1080.60449	1753.28259	-44.90907	963.78156	1788.56665	-9.08747	824.79987	1775.81458	-48.72726	842.74127	1814.14819	-39.44915	755.87469	1818.18958	140.01384	915.28619	1401.46997	152.03864	927.63	1614.38025	-42.60126	925.06091	1465.24719	-32.64835	932.93469	1610.63867	91.96652	575.00714	1342.85193	70.80614	442.22168	1347.73132	-84.39	339.80853	1343.63367	-256.66064	207.52882	1400.36279	-294.62204	232.74512	1454.36499	-232.77425	61.89857	1415.93738	174.45174	599.02179	1674.85449	228.48666	450.93329	1645.41931	183.84334	278.82138	1656.85461	159.04269	75.25699	1609.37207	106.7682	36.93665	1563.46973	298.43661	36.97095	1604.44019	176.70192	1695.17126	1530.05176	1973.1167	1023.5672	-3101.9917	2012.54968	1022.1203	-3140.7771	NaN	NaN	NaN
79	0.78	167.97836	1656.14844	1443.49548	205.11324	1662.71875	1550.18506	55.95543	1614.25073	1477.79272	92.91072	1619.7522	1591.44092	25.94781	1419.76575	1507.06165	-15.49808	1126.36084	1509.20776	170.83397	1352.53687	1507.20898	210.81355	1195.72778	1501.22266	-33.05809	1226.80322	1576.91687	109.29543	1387.69653	1347.89697	71.67614	1210.60706	1256.80701	59.52105	1057.59204	1243.95667	156.13448	987.776	1227.02026	285.89737	949.1142	1256.67188	250.0851	910.67688	1228.85962	331.77264	890.09155	1222.76489	102.76685	1387.13098	1656.88501	1.53202	1202.38782	1747.10303	-15.68056	1080.62915	1755.0979	-24.37239	963.02948	1790.08105	14.53828	825.10077	1776.44324	-24.89045	841.81561	1815.27051	-13.64754	754.95947	1818.93677	151.951	916.42212	1401.20898	164.30493	928.53479	1615.08813	-30.13527	925.87775	1465.66699	-20.61041	934.13245	1610.82422	112.01489	576.33539	1342.10303	94.59898	443.1524	1346.73877	-60.47073	341.21527	1343.05432	-233.67982	212.19327	1401.86633	-271.40695	237.04436	1456.28247	-208.89706	66.54351	1415.65906	180.87778	598.58228	1675.20605	233.1889	449.7879	1646.36023	185.98488	278.46344	1657.59363	159.26851	75.25329	1609.18982	106.81273	37.06009	1563.21948	298.54047	36.90316	1604.39026	190.00978	1696.47083	1531.06628	1973.21338	1023.48309	-3101.7771	2012.41541	1021.99622	-3140.75977	NaN	NaN	NaN
80	0.79	180.92224	1657.61597	1444.13	218.42929	1663.94385	1550.7384	68.98664	1615.87305	1478.77393	106.25731	1621.08826	1592.26758	38.86579	1421.22913	1507.76807	-3.13446	1128.19958	1510.37488	183.65483	1353.85962	1507.13782	223.41949	1196.98608	1500.91736	-20.2385	1228.63513	1578.5946	121.32082	1389.06958	1348.14746	82.45068	1212.08459	1257.58862	68.7486	1058.72375	1245.70117	162.4687	985.08441	1227.78613	291.27805	941.78876	1256.12268	253.59912	904.71167	1229.0498	334.31082	880.84314	1222.06409	116.71255	1388.38818	1657.20483	17.95499	1202.9342	1748.92847	1.59917	1080.55396	1756.74329	-3.57866	962.44873	1791.51099	39.04089	825.81079	1776.9519	-0.58331	841.11871	1816.22253	13.62043	755.28815	1819.87622	164.35629	918.04443	1401.40308	176.42842	929.4613	1615.81433	-17.69425	926.7608	1465.83081	-8.19759	935.22162	1610.77161	132.39375	578.29474	1341.36987	118.32095	444.90311	1345.95886	-35.62216	343.01675	1343.66345	-209.28471	215.56537	1403.82349	-247.0208	240.10028	1459.01465	-183.66862	70.29388	1415.55481	187.46112	598.46454	1675.45898	237.60107	448.70081	1647.03284	188.11569	277.87012	1657.87842	159.50395	75.21648	1609.00928	106.77027	37.11451	1562.82971	298.57101	36.72695	1604.30823	203.36971	1697.73169	1531.71851	1973.09912	1023.50647	-3101.93408	2012.58264	1022.02344	-3140.71826	NaN	NaN	NaN
